<svg width="581" height="106" viewBox="0 0 581 106" fill="none" xmlns="http://www.w3.org/2000/svg">
<g style="mix-blend-mode:hard-light">
<path fill-rule="evenodd" clip-rule="evenodd" d="M3 100.781H10.5V4.40625H3V100.781ZM57.5391 12.5156H60.5391V15.5156V100.781V103.781H63.5391H70.9688H73.9688V100.781V15.5156V12.5156H76.9688H103.875H106.875V9.51562V4.40625V1.40625H103.875H30.7031H27.7031V4.40625V9.51562V12.5156H30.7031H57.5391ZM30.7031 9.51562H60.5391H63.5391V12.5156V100.781H70.9688V12.5156V9.51562H73.9688H103.875V4.40625H30.7031V9.51562ZM151.93 55.2652L151.935 55.2666C161.205 57.9488 168.066 60.7921 172.072 63.9398C176.417 67.3046 178.5 72.1027 178.5 77.9062C178.5 83.8025 176.208 88.6658 171.628 92.1713C167.107 95.6322 160.897 97.1484 153.422 97.1484C145.325 97.1484 138.496 95.258 133.232 91.1753L133.218 91.1649L133.205 91.1544C128.665 87.5502 126.078 82.8002 125.419 77.1094H117.84C118.292 81.2492 119.7 84.9765 122.054 88.3425C125.023 92.5201 129.274 95.9032 134.949 98.4367C140.639 100.93 146.785 102.188 153.422 102.188C163.802 102.188 171.739 99.8087 177.534 95.3595C183.255 90.9217 186.07 85.1477 186.07 77.7656C186.07 73.0262 185.008 69.0611 182.993 65.7571L182.986 65.7457L182.979 65.7342C180.996 62.4151 177.843 59.3898 173.338 56.7219L173.324 56.7131L173.309 56.7042C168.856 53.9976 162.491 51.4385 154.089 49.084L154.085 49.0829C145.506 46.6656 139 43.9102 134.95 40.6599L134.933 40.6463L134.917 40.6325C130.785 37.2168 128.555 32.8602 128.555 27.7031C128.555 21.6907 130.746 16.7208 135.255 13.1808C139.708 9.67508 145.651 8.10938 152.719 8.10938C160.366 8.10938 166.731 10.0123 171.388 14.2219C175.371 17.7814 177.572 22.4568 178.14 28.0078H185.697C185.262 24.0603 183.953 20.3825 181.759 16.9404L181.753 16.9315L181.748 16.9226C179.071 12.6563 175.248 9.26685 170.169 6.77047L170.16 6.766C165.147 4.2811 159.357 3 152.719 3C142.932 3 135.264 5.50371 129.448 10.2664L129.446 10.2679C123.698 14.9672 120.914 20.7814 120.914 27.9141C120.914 34.1949 123.184 39.3969 127.82 43.7059C132.62 48.0765 140.54 51.991 151.93 55.2652ZM125.789 45.9141C120.539 41.0391 117.914 35.0391 117.914 27.9141C117.914 19.8516 121.125 13.1953 127.547 7.94531C134.016 2.64844 142.406 0 152.719 0C159.75 0 166.008 1.35938 171.492 4.07812C177.023 6.79688 181.289 10.5469 184.289 15.3281C186.791 19.2544 188.266 23.481 188.713 28.0078C188.811 28.9936 188.859 29.9936 188.859 31.0078H185.859H178.289H175.289C175.289 24.8203 173.32 19.9688 169.383 16.4531C165.445 12.8906 159.891 11.1094 152.719 11.1094C146.062 11.1094 140.859 12.5859 137.109 15.5391C133.406 18.4453 131.555 22.5 131.555 27.7031C131.555 31.875 133.312 35.4141 136.828 38.3203C140.391 41.1797 146.414 43.8047 154.898 46.1953C163.43 48.5859 170.086 51.2344 174.867 54.1406C179.695 57 183.258 60.3516 185.555 64.1953C187.898 68.0391 189.07 72.5625 189.07 77.7656C189.07 86.0625 185.836 92.7188 179.367 97.7344C172.898 102.703 164.25 105.188 153.422 105.188C146.391 105.188 139.828 103.852 133.734 101.18C127.641 98.4609 122.93 94.7578 119.602 90.0703C116.882 86.1848 115.289 81.8645 114.824 77.1094C114.728 76.1279 114.68 75.1279 114.68 74.1094H117.68H125.25H128.25C128.25 80.2969 130.523 85.1953 135.07 88.8047C139.664 92.3672 145.781 94.1484 153.422 94.1484C160.547 94.1484 166.008 92.6953 169.805 89.7891C173.602 86.8828 175.5 82.9219 175.5 77.9062C175.5 72.8906 173.742 69.0234 170.227 66.3047C166.711 63.5391 160.336 60.8203 151.102 58.1484C139.523 54.8203 131.086 50.7422 125.789 45.9141ZM291.447 80.9045L259.594 1.40625H245.156H242.156V4.40625V100.781V103.781H245.156H252.656H255.656V100.781V63.9141L254.59 29.7403L254.32 21.0938L257.572 29.1102L287.859 103.781H298.195L328.569 28.8647L331.805 20.8828L331.551 29.4919L330.539 63.9141V100.781V103.781H333.539H341.039H344.039V100.781V4.40625V1.40625H341.039H326.531L294.678 80.9045L293.062 84.9375L291.447 80.9045ZM328.561 4.40625L295.847 86.0533L293.062 93.0035L290.278 86.0533L257.564 4.40625H245.156V100.781H252.656V63.9607L251.322 21.1873L257.1 19.9661L289.88 100.781H296.174L329.025 19.7556L334.803 20.971L333.539 63.9587V100.781H341.039V4.40625H328.561ZM427.769 74.0625L428.489 76.0319L437.542 100.781H444.937L408.068 4.40625H400.386L363.583 100.781H371.041L379.959 76.045L380.674 74.0625H382.781H425.672H427.769ZM373.148 103.781H362.438H359.227L360.372 100.781L398.32 1.40625H410.133L448.149 100.781L449.297 103.781H446.085H435.445L425.672 77.0625H382.781L373.148 103.781ZM382.58 68.9531L384.039 64.9302L401.406 17.0474L404.221 9.28751L407.045 17.0438L424.483 64.9266L425.949 68.9531H421.664H386.859H382.58ZM421.664 65.9531L420.572 62.9531L405.825 22.4607L404.227 18.0703L402.633 22.4628L387.947 62.9531L386.859 65.9531H390.051H418.471H421.664ZM528.188 42.4219V45.4219H525.188H479.578H476.578V42.4219V4.40625V1.40625H473.578H466.078H463.078V4.40625V100.781V103.781H466.078H473.578H476.578V100.781V59.4609V56.4609H479.578H525.188H528.188V59.4609V100.781V103.781H531.188H538.758H541.758V100.781V4.40625V1.40625H538.758H531.188H528.188V4.40625V42.4219ZM531.188 4.40625V45.4219V48.4219H528.188H476.578H473.578V45.4219V4.40625H466.078V100.781H473.578V56.4609V53.4609H476.578H528.188H531.188V56.4609V100.781H538.758V4.40625H531.188ZM569.719 100.781H577.219V4.40625H569.719V100.781ZM10.5 103.781H13.5V100.781V4.40625V1.40625H10.5H3H0V4.40625V100.781V103.781H3H10.5ZM577.219 103.781H580.219V100.781V4.40625V1.40625H577.219H569.719H566.719V4.40625V100.781V103.781H569.719H577.219Z" fill="black"/>
</g>
</svg>
